<?xml version="1.0" encoding="utf-8"?>
<!-- Generator: Adobe Illustrator 16.0.4, SVG Export Plug-In . SVG Version: 6.00 Build 0)  -->
<!DOCTYPE svg PUBLIC "-//W3C//DTD SVG 1.1//EN" "http://www.w3.org/Graphics/SVG/1.1/DTD/svg11.dtd">
<svg version="1.1" id="Ebene_1" xmlns="http://www.w3.org/2000/svg" xmlns:xlink="http://www.w3.org/1999/xlink" x="0px" y="0px"
	 width="31.145px" height="28.625px" viewBox="0 -0.938 31.145 28.625" enable-background="new 0 -0.938 31.145 28.625"
	 xml:space="preserve">
<g id="c100_arrow">
	<path fill="#0069B4" d="M30.143,13.375c-0.001-1.703-1.383-3.082-3.085-3.083L11.53,10.293l4.738-4.738
		c1.283-1.284,1.349-3.301,0.145-4.508c-1.205-1.2-3.222-1.137-4.507,0.146L2.01,11.092c-1.287,1.283-1.353,3.3-0.146,4.505
		c0.033,0.029,0.068,0.051,0.1,0.08c0.041,0.043,0.07,0.094,0.113,0.139l9.764,9.764c1.269,1.266,3.271,1.314,4.475,0.109
		c1.205-1.205,1.153-3.207-0.111-4.475l-4.755-4.754h15.609C28.762,16.461,30.143,15.082,30.143,13.375z"/>
</g>
<g id="Capa_1">
</g>
</svg>
